<?xml version="1.0" standalone="no"?>
<!DOCTYPE svg PUBLIC "-//W3C//DTD SVG 20010904//EN"
 "http://www.w3.org/TR/2001/REC-SVG-20010904/DTD/svg10.dtd">
<svg version="1.0" xmlns="http://www.w3.org/2000/svg"
 width="1564.000000pt" height="1564.000000pt" viewBox="0 0 1564.000000 1564.000000"
 preserveAspectRatio="xMidYMid meet">

<g transform="translate(0.000000,1564.000000) scale(0.100000,-0.100000)"
fill="#000000" stroke="none">
<path d="M0 7820 l0 -7820 7820 0 7820 0 0 7820 0 7820 -7820 0 -7820 0 0
-7820z m7413 5083 c3 -5 8 -56 12 -115 l7 -108 -31 0 -31 0 0 79 c0 91 3 88
-91 83 l-59 -4 0 -51 c0 -29 4 -101 9 -162 6 -60 13 -163 17 -227 l6 -118 54
0 c50 0 54 -2 54 -24 0 -28 -16 -31 -183 -42 l-109 -7 4 29 c3 27 7 29 53 34
l50 5 -2 55 c-8 188 -25 468 -29 483 -5 15 -15 17 -72 15 l-67 -3 3 -82 2 -83
-28 0 c-27 0 -30 3 -36 46 -3 26 -6 75 -6 110 l0 62 73 7 c40 4 136 10 212 14
77 5 150 9 162 9 12 1 24 -1 26 -5z m913 -68 c173 -30 236 -59 273 -126 39
-68 19 -181 -40 -236 -51 -47 -119 -54 -259 -27 -46 8 -86 12 -91 7 -4 -4 -18
-65 -30 -135 l-23 -128 -28 0 c-37 0 -43 17 -30 87 43 237 95 504 103 536 11
43 8 42 125 22z m-1618 -215 c144 -257 222 -405 222 -418 0 -7 -14 -12 -32
-12 -30 0 -36 6 -73 71 -22 38 -44 74 -50 79 -9 8 -251 -32 -262 -43 -2 -2 -9
-44 -15 -92 -11 -77 -15 -88 -36 -96 -46 -18 -54 -13 -47 34 26 195 87 616 91
634 6 22 30 32 74 29 22 -1 39 -26 128 -186z m-499 -92 c34 -106 80 -249 102
-316 21 -68 39 -129 39 -136 0 -7 -12 -18 -27 -25 -34 -15 -33 -16 -78 129
-50 163 -50 162 -77 150 -13 -5 -70 -24 -128 -41 -58 -17 -109 -35 -113 -38
-4 -4 11 -67 33 -139 22 -72 40 -138 40 -145 0 -15 -20 -27 -45 -27 -22 0
-225 634 -208 651 5 5 19 10 32 11 22 3 27 -7 71 -142 25 -80 51 -144 56 -144
10 2 257 77 262 80 2 1 -15 64 -37 141 -23 76 -41 143 -41 149 0 10 34 31 51
33 4 1 35 -86 68 -191z m2867 141 c12 -9 14 -74 14 -365 0 -218 -4 -354 -10
-354 -5 0 -21 5 -35 12 -24 11 -25 14 -25 104 0 51 -4 96 -10 99 -21 13 -181
65 -217 71 -39 6 -39 6 -94 -68 -45 -60 -60 -72 -79 -70 -41 4 -45 18 -17 59
240 343 368 518 391 534 11 8 63 -6 82 -22z m537 -229 c114 -51 207 -99 207
-106 0 -7 -20 -56 -45 -109 -40 -88 -46 -95 -64 -85 -31 16 -31 21 0 89 16 35
29 68 29 72 0 11 -94 59 -115 59 -9 0 -23 -16 -31 -37 -9 -21 -57 -128 -106
-237 -50 -110 -87 -202 -82 -204 35 -13 78 -39 81 -47 2 -6 -3 -19 -11 -30
-13 -18 -15 -18 -72 7 -176 77 -184 82 -184 103 0 43 14 48 60 25 23 -12 46
-18 51 -13 12 12 209 444 209 459 0 17 -97 67 -116 60 -7 -3 -27 -35 -43 -71
-27 -60 -33 -66 -53 -60 -13 4 -25 9 -27 11 -2 2 8 31 23 64 15 33 36 81 47
105 11 25 23 44 27 42 4 -2 100 -46 215 -97z m-4036 28 c20 -26 55 -128 49
-143 -8 -21 -32 -19 -65 6 -106 78 -320 -62 -231 -151 19 -19 32 -20 182 -17
155 2 165 1 200 -21 100 -62 113 -191 28 -279 -56 -59 -102 -78 -188 -78 -39
0 -72 -1 -72 -3 0 -1 6 -11 13 -23 10 -17 9 -22 -7 -35 -11 -8 -24 -14 -28
-14 -11 0 -88 166 -88 190 0 33 30 31 73 -5 22 -19 56 -38 74 -41 73 -14 161
18 193 71 29 47 26 87 -10 125 l-30 32 -154 -7 c-142 -6 -156 -6 -193 13 -93
48 -110 161 -36 243 62 68 156 103 217 80 27 -11 28 -10 22 15 -11 41 27 72
51 42z m4484 -221 c30 -19 108 -66 174 -107 66 -40 121 -74 123 -75 2 -2 -5
-16 -15 -32 l-18 -30 -140 88 c-77 48 -148 88 -157 88 -17 1 -131 -176 -122
-190 2 -4 49 -35 104 -68 54 -34 101 -65 104 -70 3 -5 -3 -20 -13 -32 -18 -22
-22 -23 -43 -10 -146 91 -181 111 -192 111 -10 0 -88 -116 -123 -182 -4 -8 12
-19 190 -128 59 -36 107 -67 107 -70 0 -3 -9 -16 -19 -29 l-19 -24 -172 104
c-95 57 -174 109 -177 116 -3 7 30 70 72 140 155 257 267 433 274 433 4 0 32
-15 62 -33z m-5061 -21 c0 -8 -13 -94 -30 -191 -35 -206 -33 -185 -20 -185 21
0 400 -172 400 -182 0 -5 -9 -12 -20 -15 -11 -3 -20 -9 -20 -14 0 -16 -20 -9
-196 68 -104 45 -178 73 -183 67 -5 -5 -12 -27 -15 -49 -6 -36 -1 -49 54 -139
33 -54 60 -102 60 -106 0 -4 -9 -15 -20 -25 -18 -16 -22 -17 -34 -4 -15 15
-136 208 -266 422 l-84 139 24 19 c25 19 25 19 45 -6 11 -14 50 -74 85 -134
36 -61 68 -110 71 -110 3 -1 14 45 23 102 51 302 56 322 84 339 34 21 42 21
42 4z m5560 -285 c18 -14 21 -23 14 -33 -6 -7 -90 -113 -187 -235 -97 -122
-177 -225 -177 -230 0 -4 61 -57 135 -117 74 -59 135 -110 135 -112 0 -2 -8
-17 -18 -34 l-19 -30 -164 131 c-90 72 -168 134 -172 139 -5 4 74 110 175 235
101 125 196 245 212 266 16 22 32 39 35 39 3 0 17 -9 31 -19z m-6076 -253 c78
-50 213 -138 300 -196 l159 -104 -29 -23 c-16 -13 -31 -22 -34 -20 -3 1 -35
21 -73 44 -37 22 -73 41 -80 41 -26 0 -207 -150 -207 -171 0 -8 12 -49 27 -91
l28 -78 -25 -17 c-14 -10 -29 -18 -33 -18 -8 0 -113 273 -210 547 l-42 117 29
30 c17 17 34 31 40 31 5 0 73 -41 150 -92z m-355 -726 c56 -52 101 -97 101
-101 0 -4 -39 -52 -86 -107 -483 -557 -840 -1276 -989 -1994 -111 -533 -127
-1104 -45 -1629 192 -1238 885 -2328 1925 -3034 609 -412 1273 -654 2040 -744
230 -26 740 -24 975 5 678 83 1268 284 1827 622 608 369 1150 912 1515 1520
476 793 701 1712 638 2608 -72 1010 -446 1920 -1097 2666 -29 33 -53 66 -53
72 0 10 208 204 220 204 3 0 51 -53 106 -117 548 -643 916 -1415 1068 -2244
55 -296 69 -474 69 -869 1 -381 -7 -494 -54 -775 -122 -735 -417 -1447 -842
-2030 -278 -381 -680 -787 -1041 -1054 -744 -550 -1609 -869 -2514 -931 -851
-57 -1667 97 -2412 457 -324 156 -541 287 -825 499 -587 437 -1119 1084 -1430
1737 -119 252 -163 360 -240 592 -272 821 -315 1710 -124 2565 163 729 506
1430 978 1995 136 163 165 194 177 187 7 -4 58 -49 113 -100z m2182 -868 c16
-19 35 -66 206 -509 181 -467 300 -772 385 -990 39 -99 78 -201 87 -227 9 -26
19 -48 24 -48 4 0 7 397 7 883 0 673 3 886 12 895 14 14 753 18 762 4 3 -5 6
-432 7 -950 0 -518 4 -942 9 -942 4 0 81 91 172 203 353 435 1226 1509 1311
1612 27 33 56 66 65 73 22 17 902 18 920 0 25 -25 9 -57 -95 -183 -59 -71
-270 -330 -468 -575 -198 -245 -459 -566 -580 -715 -220 -272 -461 -570 -478
-592 -6 -9 74 -109 261 -330 148 -175 415 -489 592 -698 345 -406 493 -581
630 -740 120 -139 170 -205 170 -220 0 -8 -10 -21 -22 -29 -20 -14 -82 -16
-483 -16 l-461 0 -31 33 c-18 17 -95 111 -173 207 -231 287 -784 970 -928
1148 -46 56 -87 102 -92 102 -7 0 -268 -288 -472 -522 l-77 -88 19 -52 c10
-29 57 -152 105 -273 155 -394 195 -504 189 -520 -4 -8 -15 -20 -25 -25 -10
-6 -166 -10 -383 -10 l-366 0 -14 23 c-15 21 -66 160 -146 392 -21 61 -111
315 -200 565 -89 250 -188 529 -220 620 -32 91 -95 269 -140 395 -45 127 -89
249 -97 273 -17 47 -28 53 -36 20 -3 -13 -30 -95 -62 -183 -31 -88 -63 -178
-70 -200 -7 -22 -41 -119 -75 -215 -34 -96 -79 -224 -100 -285 -53 -152 -171
-491 -210 -600 -17 -49 -49 -139 -70 -200 -103 -300 -192 -551 -202 -569 -6
-12 -16 -24 -22 -28 -6 -4 -178 -8 -383 -8 -325 0 -374 2 -387 16 -9 8 -16 20
-16 25 0 16 70 198 1172 3039 176 454 336 866 354 915 19 50 42 96 51 103 23
17 58 15 74 -4z"/>
<path d="M8265 12770 c-5 -8 -45 -221 -45 -241 0 -12 197 -40 233 -34 89 17
127 145 64 214 -27 29 -52 38 -147 57 -89 17 -97 17 -105 4z"/>
<path d="M6540 12564 c-12 -91 -19 -168 -17 -171 10 -9 208 31 205 42 -6 21
-153 295 -159 295 -3 0 -16 -75 -29 -166z"/>
<path d="M8950 12524 c-36 -49 -82 -114 -102 -144 l-38 -55 38 -16 c49 -20
163 -52 168 -46 3 2 3 82 2 177 l-3 174 -65 -90z"/>
<path d="M4360 11673 c0 -8 56 -160 98 -268 11 -27 24 -50 28 -50 16 0 163
120 160 130 -1 6 -58 47 -127 93 -144 96 -159 105 -159 95z"/>
</g>
</svg>
