<svg xmlns="http://www.w3.org/2000/svg" xmlns:xlink="http://www.w3.org/1999/xlink" width="500" zoomAndPan="magnify" viewBox="0 0 375 374.999991" height="500" preserveAspectRatio="xMidYMid meet" version="1.0"><defs><g/><clipPath id="f055cc3117"><path d="M 65.792969 70.648438 L 296.042969 70.648438 L 296.042969 300.898438 L 65.792969 300.898438 Z M 65.792969 70.648438 " clip-rule="nonzero"/></clipPath><clipPath id="29ae35eaae"><path d="M 181 70.648438 C 117.375 70.648438 65.792969 122.226562 65.792969 185.855469 C 65.792969 249.484375 117.375 301.0625 181 301.0625 C 244.628906 301.0625 296.207031 249.484375 296.207031 185.855469 C 296.207031 122.226562 244.628906 70.648438 181 70.648438 Z M 181 70.648438 " clip-rule="nonzero"/></clipPath></defs><rect x="-37.5" width="450" fill="#ffffff" y="-37.499999" height="449.999989" fill-opacity="1"/><rect x="-37.5" width="450" fill="#ffffff" y="-37.499999" height="449.999989" fill-opacity="1"/><g clip-path="url(#f055cc3117)"><g clip-path="url(#29ae35eaae)"><path stroke-linecap="butt" transform="matrix(0.75, 0, 0, 0.75, 65.793238, 70.648507)" fill="none" stroke-linejoin="miter" d="M 153.609026 -0.0000931477 C 68.775687 -0.0000931477 -0.000358706 68.770745 -0.000358706 153.609292 C -0.000358706 238.447839 68.775687 307.218677 153.609026 307.218677 C 238.447574 307.218677 307.218411 238.447839 307.218411 153.609292 C 307.218411 68.770745 238.447574 -0.0000931477 153.609026 -0.0000931477 Z M 153.609026 -0.0000931477 " stroke="#000000" stroke-width="20" stroke-opacity="1" stroke-miterlimit="4"/></g></g><path fill="#ffffff" d="M 90.351562 102.890625 C 89.890625 102.425781 89.476562 101.925781 89.113281 101.382812 C 88.746094 100.839844 88.4375 100.269531 88.179688 99.667969 C 87.925781 99.066406 87.730469 98.445312 87.59375 97.808594 C 87.457031 97.167969 87.382812 96.519531 87.371094 95.867188 C 87.359375 95.214844 87.410156 94.566406 87.523438 93.921875 C 87.636719 93.277344 87.808594 92.652344 88.039062 92.039062 C 88.273438 91.429688 88.5625 90.847656 88.90625 90.292969 C 89.253906 89.738281 89.648438 89.21875 90.09375 88.742188 C 91.625 87.324219 93.191406 85.941406 94.789062 84.597656 C 96.386719 83.25 98.015625 81.945312 99.671875 80.675781 C 101.332031 79.40625 103.019531 78.179688 104.738281 76.988281 C 106.453125 75.796875 108.195312 74.648438 109.964844 73.542969 C 111.738281 72.433594 113.53125 71.367188 115.351562 70.34375 C 117.171875 69.320312 119.015625 68.339844 120.882812 67.398438 C 122.746094 66.460938 124.632812 65.570312 126.542969 64.71875 C 128.449219 63.871094 130.375 63.066406 132.320312 62.304688 C 134.265625 61.546875 136.230469 60.832031 138.207031 60.164062 C 140.1875 59.496094 142.179688 58.878906 144.1875 58.304688 C 146.195312 57.730469 148.21875 57.203125 150.25 56.722656 C 152.28125 56.242188 154.324219 55.808594 156.378906 55.425781 C 158.429688 55.042969 160.492188 54.707031 162.558594 54.417969 C 164.628906 54.132812 166.703125 53.890625 168.78125 53.703125 C 170.863281 53.511719 172.945312 53.367188 175.03125 53.277344 C 177.117188 53.183594 179.207031 53.140625 181.292969 53.144531 C 183.382812 53.148438 185.46875 53.203125 187.554688 53.304688 C 189.640625 53.40625 191.722656 53.558594 193.800781 53.757812 C 195.882812 53.957031 197.953125 54.207031 200.023438 54.503906 C 202.089844 54.796875 204.148438 55.144531 206.199219 55.535156 C 208.25 55.929688 210.292969 56.371094 212.320312 56.859375 C 214.351562 57.347656 216.371094 57.882812 218.375 58.46875 C 220.378906 59.050781 222.371094 59.679688 224.347656 60.355469 C 226.324219 61.035156 228.28125 61.753906 230.222656 62.523438 C 232.167969 63.292969 234.089844 64.105469 235.992188 64.960938 C 237.898438 65.820312 239.78125 66.722656 241.640625 67.667969 C 243.503906 68.613281 245.34375 69.605469 247.160156 70.636719 C 248.972656 71.667969 250.765625 72.742188 252.53125 73.859375 C 254.292969 74.972656 256.03125 76.132812 257.746094 77.328125 C 259.457031 78.527344 261.136719 79.761719 262.789062 81.039062 C 264.445312 82.316406 266.066406 83.628906 267.660156 84.980469 C 269.25 86.332031 270.808594 87.722656 272.335938 89.148438 C 272.777344 89.628906 273.171875 90.144531 273.511719 90.703125 C 273.855469 91.257812 274.140625 91.84375 274.371094 92.453125 C 274.601562 93.066406 274.773438 93.695312 274.882812 94.339844 C 274.992188 94.984375 275.039062 95.632812 275.023438 96.285156 C 275.011719 96.9375 274.933594 97.585938 274.792969 98.222656 C 274.65625 98.859375 274.457031 99.480469 274.199219 100.082031 C 273.941406 100.679688 273.628906 101.25 273.261719 101.792969 C 272.890625 102.332031 272.476562 102.832031 272.011719 103.292969 L 256.992188 117.109375 C 256.507812 117.605469 255.980469 118.046875 255.40625 118.4375 C 254.832031 118.824219 254.226562 119.152344 253.585938 119.417969 C 252.945312 119.679688 252.285156 119.878906 251.601562 120.007812 C 250.921875 120.140625 250.234375 120.199219 249.542969 120.191406 C 248.847656 120.179688 248.164062 120.101562 247.484375 119.949219 C 246.808594 119.800781 246.152344 119.585938 245.519531 119.300781 C 244.886719 119.019531 244.289062 118.675781 243.726562 118.269531 C 243.164062 117.867188 242.648438 117.410156 242.179688 116.898438 C 240.089844 115.074219 237.917969 113.347656 235.675781 111.714844 C 233.429688 110.085938 231.113281 108.558594 228.734375 107.132812 C 226.351562 105.710938 223.910156 104.394531 221.410156 103.191406 C 218.910156 101.984375 216.363281 100.894531 213.765625 99.917969 C 211.167969 98.9375 208.53125 98.078125 205.855469 97.339844 C 203.183594 96.597656 200.480469 95.976562 197.75 95.476562 C 195.019531 94.976562 192.273438 94.601562 189.511719 94.347656 C 186.746094 94.09375 183.976562 93.960938 181.203125 93.957031 C 178.429688 93.949219 175.65625 94.066406 172.894531 94.308594 C 170.128906 94.550781 167.378906 94.914062 164.648438 95.402344 C 161.917969 95.890625 159.210938 96.5 156.535156 97.230469 C 153.855469 97.957031 151.21875 98.804688 148.617188 99.773438 C 146.015625 100.738281 143.460938 101.816406 140.957031 103.011719 C 138.449219 104.207031 136.003906 105.507812 133.613281 106.921875 C 131.226562 108.335938 128.90625 109.851562 126.652344 111.472656 C 124.402344 113.09375 122.226562 114.8125 120.125 116.628906 C 119.652344 117.136719 119.136719 117.589844 118.570312 117.992188 C 118.007812 118.394531 117.40625 118.734375 116.773438 119.015625 C 116.140625 119.296875 115.484375 119.507812 114.804688 119.65625 C 114.128906 119.800781 113.441406 119.878906 112.75 119.886719 C 112.054688 119.890625 111.367188 119.828125 110.6875 119.695312 C 110.007812 119.5625 109.347656 119.363281 108.707031 119.09375 C 108.070312 118.828125 107.464844 118.496094 106.890625 118.105469 C 106.320312 117.714844 105.792969 117.269531 105.308594 116.769531 Z M 90.351562 102.890625 " fill-opacity="1" fill-rule="nonzero"/><g fill="#032130" fill-opacity="1"><g transform="translate(108.963367, 108.382729)"><g><path d="M 9.671875 -7.734375 L 8.25 -6.59375 L 4.140625 -9.265625 L -0.875 -5.25 L 0.859375 -0.6875 L -0.578125 0.453125 L -6.515625 -15.609375 L -4.703125 -17.046875 Z M 2.828125 -10.15625 L -4.546875 -14.96875 L -1.421875 -6.75 Z M 2.828125 -10.15625 "/></g></g></g><g fill="#032130" fill-opacity="1"><g transform="translate(119.125672, 100.183812)"><g><path d="M 9.8125 -6.046875 L 8.03125 -4.953125 L -0.734375 -8.875 L -1.1875 -6.359375 L 1.96875 -1.21875 L 0.515625 -0.3125 L -8 -14.140625 L -6.546875 -15.046875 L -2.40625 -8.328125 L -0.609375 -18.703125 L 1.296875 -19.875 L -0.40625 -10.5 Z M 9.8125 -6.046875 "/></g></g></g><g fill="#032130" fill-opacity="1"><g transform="translate(130.215004, 93.290246)"><g><path d="M 8.40625 -8.5 C 8.6875 -7.882812 8.8125 -7.269531 8.78125 -6.65625 C 8.757812 -6.039062 8.613281 -5.453125 8.34375 -4.890625 C 8.082031 -4.328125 7.71875 -3.820312 7.25 -3.375 C 6.78125 -2.925781 6.25 -2.5625 5.65625 -2.28125 C 4.820312 -1.90625 3.984375 -1.710938 3.140625 -1.703125 C 2.304688 -1.691406 1.550781 -1.894531 0.875 -2.3125 L 1.59375 -0.734375 L 0.28125 -0.125 L -1.78125 -4.609375 L -0.46875 -5.21875 C -0.226562 -4.71875 0.0976562 -4.3125 0.515625 -4 C 0.941406 -3.6875 1.40625 -3.460938 1.90625 -3.328125 C 2.40625 -3.191406 2.929688 -3.144531 3.484375 -3.1875 C 4.035156 -3.238281 4.5625 -3.375 5.0625 -3.59375 C 5.488281 -3.800781 5.859375 -4.050781 6.171875 -4.34375 C 6.484375 -4.632812 6.726562 -4.957031 6.90625 -5.3125 C 7.082031 -5.675781 7.171875 -6.0625 7.171875 -6.46875 C 7.179688 -6.875 7.09375 -7.289062 6.90625 -7.71875 C 6.6875 -8.1875 6.394531 -8.539062 6.03125 -8.78125 C 5.664062 -9.019531 5.253906 -9.179688 4.796875 -9.265625 C 4.335938 -9.347656 3.847656 -9.375 3.328125 -9.34375 C 2.816406 -9.3125 2.296875 -9.273438 1.765625 -9.234375 C 1.128906 -9.191406 0.5 -9.148438 -0.125 -9.109375 C -0.75 -9.078125 -1.34375 -9.117188 -1.90625 -9.234375 C -2.476562 -9.359375 -3 -9.585938 -3.46875 -9.921875 C -3.945312 -10.253906 -4.34375 -10.757812 -4.65625 -11.4375 C -4.925781 -12.039062 -5.039062 -12.632812 -5 -13.21875 C -4.96875 -13.8125 -4.816406 -14.363281 -4.546875 -14.875 C -4.273438 -15.394531 -3.90625 -15.863281 -3.4375 -16.28125 C -2.96875 -16.707031 -2.4375 -17.050781 -1.84375 -17.3125 C -1.125 -17.644531 -0.394531 -17.800781 0.34375 -17.78125 C 1.082031 -17.769531 1.757812 -17.539062 2.375 -17.09375 L 1.671875 -18.640625 L 3.03125 -19.265625 L 4.96875 -15.046875 L 3.609375 -14.421875 C 3.398438 -14.859375 3.113281 -15.226562 2.75 -15.53125 C 2.394531 -15.84375 1.992188 -16.0625 1.546875 -16.1875 C 1.109375 -16.320312 0.644531 -16.375 0.15625 -16.34375 C -0.320312 -16.3125 -0.785156 -16.191406 -1.234375 -15.984375 C -1.628906 -15.804688 -1.988281 -15.585938 -2.3125 -15.328125 C -2.632812 -15.078125 -2.882812 -14.789062 -3.0625 -14.46875 C -3.25 -14.144531 -3.351562 -13.785156 -3.375 -13.390625 C -3.394531 -13.003906 -3.304688 -12.59375 -3.109375 -12.15625 C -2.929688 -11.769531 -2.679688 -11.484375 -2.359375 -11.296875 C -2.046875 -11.117188 -1.675781 -11 -1.25 -10.9375 C -0.832031 -10.875 -0.375 -10.851562 0.125 -10.875 C 0.632812 -10.90625 1.15625 -10.9375 1.6875 -10.96875 C 2.320312 -11.03125 2.972656 -11.066406 3.640625 -11.078125 C 4.304688 -11.085938 4.929688 -11.019531 5.515625 -10.875 C 6.109375 -10.738281 6.65625 -10.488281 7.15625 -10.125 C 7.664062 -9.757812 8.082031 -9.21875 8.40625 -8.5 Z M 8.40625 -8.5 "/></g></g></g><g fill="#032130" fill-opacity="1"><g transform="translate(142.064628, 87.805645)"><g><path d="M 10.484375 -3.328125 L 8.84375 -2.796875 L 6.578125 -9.96875 L -0.0625 -7.875 L 2.203125 -0.703125 L 0.578125 -0.1875 L -4.328125 -15.671875 L -2.703125 -16.1875 L -0.515625 -9.265625 L 6.125 -11.359375 L 3.9375 -18.28125 L 5.578125 -18.8125 Z M 10.484375 -3.328125 "/></g></g></g><g fill="#032130" fill-opacity="1"><g transform="translate(154.496413, 83.812492)"><g><path d="M 12.1875 -2.265625 L 10.390625 -1.9375 L 8.03125 -6.21875 L 1.71875 -5.046875 L 1.078125 -0.203125 L -0.71875 0.140625 L 1.625 -16.828125 L 3.890625 -17.25 Z M 7.28125 -7.609375 L 3.0625 -15.34375 L 1.921875 -6.609375 Z M 7.28125 -7.609375 "/></g></g></g><g fill="#032130" fill-opacity="1"><g transform="translate(167.323442, 81.3708)"><g><path d="M 10.9375 -11.46875 L 9.46875 -11.375 L 9.21875 -15.390625 L 5.734375 -15.171875 L 6.546875 -1.859375 L 9.171875 -2.015625 L 9.265625 -0.5625 L 2.3125 -0.140625 L 2.21875 -1.59375 L 4.828125 -1.75 L 4.015625 -15.0625 L 0.546875 -14.859375 L 0.796875 -10.84375 L -0.65625 -10.75 L -1 -16.21875 L 10.59375 -16.9375 Z M 10.9375 -11.46875 "/></g></g></g><g fill="#032130" fill-opacity="1"><g transform="translate(180.352873, 80.517284)"><g/></g></g><g fill="#032130" fill-opacity="1"><g transform="translate(193.388802, 81.264782)"><g><path d="M 13.5 -9.28125 C 13.207031 -7.738281 12.507812 -6.679688 11.40625 -6.109375 C 10.3125 -5.535156 8.894531 -5.410156 7.15625 -5.734375 L 3.546875 -6.40625 L 2.28125 0.421875 L 0.59375 0.109375 L 3.5625 -15.859375 L 8.84375 -14.875 C 10.59375 -14.550781 11.875 -13.914062 12.6875 -12.96875 C 13.507812 -12.03125 13.78125 -10.800781 13.5 -9.28125 Z M 11.828125 -9.59375 C 12.035156 -10.695312 11.835938 -11.5625 11.234375 -12.1875 C 10.628906 -12.8125 9.75 -13.234375 8.59375 -13.453125 L 4.984375 -14.125 L 3.828125 -7.859375 L 7.4375 -7.1875 C 8.59375 -6.96875 9.5625 -7.035156 10.34375 -7.390625 C 11.125 -7.753906 11.617188 -8.488281 11.828125 -9.59375 Z M 11.828125 -9.59375 "/></g></g></g><g fill="#032130" fill-opacity="1"><g transform="translate(206.235271, 83.60205)"><g><path d="M 11.8125 3.734375 L 10.0625 3.1875 L 10.015625 -1.6875 L 3.890625 -3.640625 L 1.046875 0.328125 L -0.703125 -0.21875 L 9.359375 -14.078125 L 11.5625 -13.375 Z M 10 -3.296875 L 9.9375 -12.109375 L 4.8125 -4.9375 Z M 10 -3.296875 "/></g></g></g><g fill="#032130" fill-opacity="1"><g transform="translate(218.699132, 87.493956)"><g><path d="M 15.046875 -4.953125 L 13.703125 -5.5625 L 15.375 -9.234375 L 12.203125 -10.6875 L 6.65625 1.4375 L 9.046875 2.53125 L 8.4375 3.859375 L 2.109375 0.96875 L 2.71875 -0.359375 L 5.09375 0.734375 L 10.640625 -11.390625 L 7.484375 -12.84375 L 5.8125 -9.171875 L 4.484375 -9.78125 L 6.765625 -14.78125 L 17.328125 -9.953125 Z M 15.046875 -4.953125 "/></g></g></g><g fill="#032130" fill-opacity="1"><g transform="translate(230.592985, 92.881976)"><g><path d="M 9.359375 5.765625 L 0.515625 0.3125 L 9.03125 -13.515625 L 17.875 -8.0625 L 17.125 -6.828125 L 9.734375 -11.375 L 6.6875 -6.4375 L 12.140625 -3.078125 L 11.359375 -1.828125 L 5.90625 -5.1875 L 2.734375 -0.015625 L 10.125 4.53125 Z M 9.359375 5.765625 "/></g></g></g><g fill="#032130" fill-opacity="1"><g transform="translate(241.738008, 99.685117)"><g><path d="M 8.59375 6.875 L 0.46875 0.375 L 10.625 -12.3125 L 11.96875 -11.25 L 2.71875 0.296875 L 9.5 5.734375 Z M 8.59375 6.875 "/></g></g></g><g fill="#000000" fill-opacity="1"><g transform="translate(106.791826, 249.465444)"><g><path d="M 85.453125 -1.640625 C 85.640625 -1.273438 85.59375 -0.910156 85.3125 -0.546875 C 85.039062 -0.179688 84.679688 0 84.234375 0 L 65.453125 0 C 64.816406 0 64.410156 -0.269531 64.234375 -0.8125 L 42.734375 -61.5 L 21.5 -0.8125 C 21.40625 -0.269531 20.953125 0 20.140625 0 L 1.5 0 C 0.863281 0 0.429688 -0.179688 0.203125 -0.546875 C -0.0234375 -0.910156 -0.046875 -1.273438 0.140625 -1.640625 L 41.375 -108.046875 C 41.550781 -108.585938 42 -108.859375 42.71875 -108.859375 C 43.445312 -108.859375 43.90625 -108.585938 44.09375 -108.046875 Z M 85.453125 -1.640625 "/></g></g></g><g fill="#000000" fill-opacity="1"><g transform="translate(169.619467, 249.465444)"><g><path d="M 86.8125 -2.046875 C 87.269531 -1.492188 87.363281 -1.015625 87.09375 -0.609375 C 86.820312 -0.203125 86.320312 0 85.59375 0 L 62.1875 0 C 61.644531 0 61.238281 -0.132812 60.96875 -0.40625 L 29.25 -39.59375 C 28.800781 -39.144531 27.78125 -38.035156 26.1875 -36.265625 C 24.601562 -34.492188 22.695312 -32.359375 20.46875 -29.859375 C 18.25 -27.367188 15.957031 -24.785156 13.59375 -22.109375 C 11.238281 -19.429688 9.019531 -16.910156 6.9375 -14.546875 C 4.851562 -12.191406 3.175781 -10.289062 1.90625 -8.84375 C 0.632812 -7.394531 0 -6.671875 0 -6.671875 L 0 -107.640625 C 0 -108.453125 0.5 -108.859375 1.5 -108.859375 L 19.453125 -108.859375 C 20.359375 -108.859375 20.8125 -108.453125 20.8125 -107.640625 L 20.8125 -58.109375 L 61.78125 -108.453125 C 62.050781 -108.722656 62.457031 -108.859375 63 -108.859375 L 85.1875 -108.859375 C 85.914062 -108.859375 86.414062 -108.628906 86.6875 -108.171875 C 86.957031 -107.722656 86.863281 -107.273438 86.40625 -106.828125 L 43.140625 -53.484375 Z M 86.8125 -2.046875 "/></g></g></g></svg>